Coordinates
version=1
nRows=19
nColumns=24
inDegrees=yes

Units are S.I. units (second, meters, Newtons, ...)
Angles are in degrees.

endheader
time	pelvis_tilt	pelvis_list	pelvis_rotation	pelvis_tx	pelvis_ty	pelvis_tz	hip_flexion_r	hip_adduction_r	hip_rotation_r	knee_angle_r	ankle_angle_r	subtalar_angle_r	mtp_angle_r	hip_flexion_l	hip_adduction_l	hip_rotation_l	knee_angle_l	ankle_angle_l	subtalar_angle_l	mtp_angle_l	lumbar_extension	lumbar_bending	lumbar_rotation
      0.72900000	      2.77213187	      3.03555089	     -0.10478216	     -0.46783140	      1.02157703	      0.26805722	      8.26265947	      0.77356064	     -2.54982849	    -17.30969829	      7.53802824	     -8.66674471	      8.90178269	     14.06054832	      1.26238955	     -7.87001024	    -67.13634839	      2.04160556	    -17.31671376	      3.08002001	     -6.75083007	     -3.15104731	      4.69535070
      0.73316667	      2.76066251	      3.17453506	     -0.24924403	     -0.46287890	      1.02244640	      0.26828720	      7.81508498	      0.63051573	     -2.47859291	    -16.99564815	      7.66352992	     -8.49069799	      8.90615711	     14.56445933	      1.41273701	     -7.95329053	    -66.76805096	      2.19593966	    -17.44270103	      2.97059748	     -6.75922588	     -3.30281891	      4.97349228
      0.73733333	      2.72877645	      3.30727614	     -0.40899900	     -0.45792052	      1.02323715	      0.26851504	      7.39443212	      0.49073100	     -2.41470671	    -16.68192079	      7.75239938	     -8.33929244	      8.91040277	     15.07612661	      1.55175455	     -8.04938016	    -66.34329848	      2.38186975	    -17.49080320	      2.90860740	     -6.72675768	     -3.44330114	      5.16206516
      0.74150000	      2.69843158	      3.45424901	     -0.57515440	     -0.45297584	      1.02398518	      0.26873733	      6.98122361	      0.33105429	     -2.35313140	    -16.38421680	      7.87312339	     -8.14482403	      8.91710776	     15.57172057	      1.70521031	     -8.14717902	    -65.85243014	      2.53199588	    -17.47555850	      2.84119878	     -6.71005231	     -3.61129297	      5.43908174
      0.74566667	      2.69484316	      3.57628085	     -0.73374565	     -0.44801765	      1.02474193	      0.26893074	      6.53167736	      0.19301462	     -2.30957381	    -16.07717734	      8.04719019	     -7.90543345	      8.93015105	     16.02410793	      1.83441169	     -8.22447851	    -65.30873840	      2.68106878	    -17.41191709	      2.73173226	     -6.72677914	     -3.72989618	      5.82564708
      0.74983333	      2.63676514	      3.67852225	     -0.86636634	     -0.44303170	      1.02537298	      0.26907588	      6.11899368	      0.07885982	     -2.24776248	    -15.72534305	      8.13215803	     -7.78441794	      8.93401996	     16.52748909	      1.95184090	     -8.26265166	    -64.72209298	      2.82080501	    -17.34752733	      2.71800138	     -6.66153472	     -3.82097693	      5.88964858
      0.75400000	      2.61832918	      3.81793814	     -1.07541830	     -0.43808278	      1.02600415	      0.26930296	      5.71595756	     -0.08651549	     -2.21169796	    -15.46066000	      8.27922372	     -7.48573401	      8.95098491	     16.95843266	      2.07708430	     -8.39912123	    -64.06031312	      3.01597058	    -17.06547357	      2.64052428	     -6.66346668	     -3.98839138	      6.35551043
      0.75816667	      2.58767762	      3.93305197	     -1.25033686	     -0.43310457	      1.02657931	      0.26947214	      5.29986677	     -0.22548552	     -2.17103176	    -15.14969879	      8.38381736	     -7.25661298	      8.96869052	     17.39181446	      2.19043270	     -8.48257467	    -63.35251252	      3.17074300	    -16.83658489	      2.57102509	     -6.64227271	     -4.10635291	      6.64365284
      0.76233333	      2.54501025	      4.04142836	     -1.43102226	     -0.42812555	      1.02707338	      0.26963928	      4.90148527	     -0.35936613	     -2.13432246	    -14.84508112	      8.50072851	     -7.03145895	      8.98743112	     17.82435881	      2.29134036	     -8.56911266	    -62.59942260	      3.33491687	    -16.53928134	      2.52233165	     -6.60176110	     -4.21987406	      6.91224524
      0.76650000	      2.50562884	      4.15353900	     -1.60775071	     -0.42314033	      1.02755009	      0.26978892	      4.49695334	     -0.49982131	     -2.09618175	    -14.53200615	      8.55626474	     -6.83250951	      8.99882835	     18.23327155	      2.39829996	     -8.64809157	    -61.78062196	      3.45895059	    -16.23164859	      2.50564216	     -6.56429248	     -4.33782049	      7.09148869
      0.77066667	      2.48699133	      4.24656562	     -1.79690702	     -0.41815546	      1.02798710	      0.26994165	      4.07434446	     -0.62366685	     -2.06766161	    -14.22677336	      8.67124084	     -6.59198586	      9.01466538	     18.60295419	      2.47754155	     -8.73380012	    -60.92284285	      3.62736905	    -15.83438273	      2.49415049	     -6.55241217	     -4.43134903	      7.37391439
      0.77483333	      2.45475130	      4.32435093	     -1.97889005	     -0.41316840	      1.02833592	      0.27007900	      3.66586784	     -0.73163683	     -2.04101305	    -13.92114209	      8.78662305	     -6.35760849	      9.03201483	     18.97503952	      2.53910145	     -8.80979069	    -60.02825921	      3.78294866	    -15.43420055	      2.49016465	     -6.52369078	     -4.50626808	      7.65676976
      0.77900000	      2.43228213	      4.40140136	     -2.16164194	     -0.40817868	      1.02866312	      0.27020320	      3.24437244	     -0.84253366	     -2.01726528	    -13.60809758	      8.89141538	     -6.12709173	      9.04907539	     19.31685976	      2.60069850	     -8.88082068	    -59.07760418	      3.92346197	    -15.01452056	      2.49405565	     -6.50828450	     -4.58199600	      7.92146317
      0.78316667	      2.41473763	      4.46330612	     -2.34514941	     -0.40319004	      1.02894105	      0.27032410	      2.81891118	     -0.93876883	     -1.99732183	    -13.29584426	      8.99916166	     -5.89350075	      9.06748237	     19.63636717	      2.64256445	     -8.95062402	    -58.08620080	      4.06253129	    -14.56299036	      2.50552250	     -6.49893582	     -4.64317964	      8.19946749
      0.78733333	      2.37514300	      4.52271739	     -2.52696658	     -0.39819996	      1.02911437	      0.27044017	      2.42348441	     -1.03284086	     -1.97497140	    -12.99696872	      9.11393020	     -5.66469265	      9.08692179	     19.96488979	      2.67907155	     -9.01704335	    -57.05465609	      4.18977643	    -14.10477273	      2.52386099	     -6.46486198	     -4.69718575	      8.47373796
      0.79150000	      2.37612938	      4.55461227	     -2.70315324	     -0.39320678	      1.02929683	      0.27053703	      1.97464833	     -1.10120957	     -1.96409324	    -12.68255468	      9.27288730	     -5.40803976	      9.11711311	     20.23179241	      2.68822142	     -9.07221766	    -55.98789298	      4.33653664	    -13.63602621	      2.55961969	     -6.48224310	     -4.72069729	      8.82502805
      0.79566667	      2.33802973	      4.59743731	     -2.87949162	     -0.38820841	      1.02938600	      0.27062706	      1.57893242	     -1.18126622	     -1.94454451	    -12.38655882	      9.38303160	     -5.18392906	      9.14767246	     20.51960688	      2.70970727	     -9.12273213	    -54.86340724	      4.42455109	    -13.17723201	      2.60456075	     -6.44978524	     -4.75400997	      9.10532918
      0.79983333	      2.31041756	      4.64093246	     -3.04960438	     -0.38320984	      1.02944961	      0.27070287	      1.17447524	     -1.26490504	     -1.93464192	    -12.09435196	      9.44918869	     -4.99683198	      9.16646838	     20.77387819	      2.73654352	     -9.16222498	    -53.68229798	      4.45729363	    -12.74311150	      2.63665884	     -6.42193791	     -4.79136157	      9.29040110
      0.80400000	      2.31006131	      4.65920846	     -3.21649175	     -0.37821953	      1.02947411	      0.27077708	      0.73491671	     -1.32318950	     -1.92804928	    -11.79487461	      9.60884842	     -4.75109095	      9.19957561	     20.98573019	      2.73136429	     -9.20339263	    -52.48248972	      4.54292149	    -12.27797053	      2.69834991	     -6.44176980	     -4.79837763	      9.61698135
